<?xml version="1.0" encoding="UTF-8" standalone="no"?>
<svg
   xmlns:dc="http://purl.org/dc/elements/1.1/"
   xmlns:cc="http://creativecommons.org/ns#"
   xmlns:rdf="http://www.w3.org/1999/02/22-rdf-syntax-ns#"
   xmlns:svg="http://www.w3.org/2000/svg"
   xmlns="http://www.w3.org/2000/svg"
   xmlns:sodipodi="http://sodipodi.sourceforge.net/DTD/sodipodi-0.dtd"
   xmlns:inkscape="http://www.inkscape.org/namespaces/inkscape"
   width="102.40485mm"
   height="98.14212mm"
   viewBox="0 0 102.40485 98.14212"
   version="1.1"
   id="svg3424"
   inkscape:version="1.0.1 (3bc2e813f5, 2020-09-07)"
   sodipodi:docname="army.svg">
  <defs
     id="defs3418" />
  <sodipodi:namedview
     id="base"
     pagecolor="#ffffff"
     bordercolor="#666666"
     borderopacity="1.0"
     inkscape:pageopacity="0.0"
     inkscape:pageshadow="2"
     inkscape:zoom="0.98994949"
     inkscape:cx="288.95027"
     inkscape:cy="324.10621"
     inkscape:document-units="mm"
     inkscape:current-layer="layer1"
     showgrid="false"
     inkscape:snap-global="true"
     inkscape:document-rotation="0"
     inkscape:window-width="3840"
     inkscape:window-height="2050"
     inkscape:window-x="-12"
     inkscape:window-y="-12"
     inkscape:window-maximized="1"
     fit-margin-top="0"
     fit-margin-left="0"
     fit-margin-right="0"
     fit-margin-bottom="0" />
  <metadata
     id="metadata3421">
    <rdf:RDF>
      <cc:Work
         rdf:about="">
        <dc:format>image/svg+xml</dc:format>
        <dc:type
           rdf:resource="http://purl.org/dc/dcmitype/StillImage" />
        <dc:title></dc:title>
      </cc:Work>
    </rdf:RDF>
  </metadata>
  <g
     inkscape:label="Layer 1"
     inkscape:groupmode="layer"
     id="layer1"
     transform="translate(-9.0468902,-5.625352)">
    <g
       id="g4753"
       transform="translate(176.1369,-3.7797619)">
      <path
         id="path4172"
         transform="scale(0.26458333)"
         d="m -332.02734,35.611328 c -23.85123,-0.0028 -57.7226,0.01045 -100.90625,0.02344 107.143,5.65e-4 145.65471,0.02143 159.76367,0.130859 -9.24642,-0.110059 -26.01319,-0.150327 -58.85742,-0.154297 z m -247.43555,0.06641 -32.23633,0.0098 -1.87695,0.519531 c -0.0962,0.02661 -0.18443,0.05693 -0.2793,0.08398 0.39519,-0.09857 0.78952,-0.200334 1.19336,-0.279297 0.0945,-0.01815 0.20687,-0.03762 0.33008,-0.05273 l -1.41992,0.392578 c -3.66217,1.012806 -6.33476,2.34178 -9.08203,4.513672 -3.77326,3.044043 -6.56552,7.496965 -7.85352,12.544922 l -0.43359,1.701172 V 221.09375 387.07617 l 0.52929,1.92188 c 1.15854,4.19686 3.16303,7.67673 6.13086,10.64453 3.43317,3.43317 7.5709,5.60428 12.31836,6.46484 1.17147,0.21241 32.18979,0.26298 174.10156,0.27735 155.03867,0.0151 172.85423,-0.0161 174.41797,-0.28711 9.36529,-1.6332 16.80127,-8.93643 18.66211,-18.1211 -1.00579,4.09397 -2.4774,7.17206 -4.81054,9.98047 2.55171,-3.1553 4.28945,-6.97974 4.8789,-11.14648 0.16156,-1.13609 0.20249,-45.71256 0.16016,-166.65039 l -0.0586,-164.689457 h 0.002 c 0.0575,0.383055 0.10522,0.769403 0.14453,1.158203 0.0112,0.111863 0.0212,1.07255 0.0312,1.789063 l -0.002,-3.503907 -0.43555,-1.607421 c -1.83137,-6.768091 -5.93143,-11.982101 -11.82617,-15.041016 -0.0443,-0.02299 -0.10645,-0.04696 -0.15235,-0.07031 6.12649,3.193856 10.62153,9.085845 12.03516,16.109376 l -0.23047,-0.853516 c -1.83137,-6.768076 -5.93135,-11.982093 -11.82617,-15.041016 -1.13299,-0.587981 -2.81126,-1.30493 -3.72852,-1.591797 -2.81189,-0.880062 4.34295,-1.054941 -71.42382,-1.0625 -25.25562,-0.0038 -59.72466,0.01223 -106.84766,0.02734 l -170.92774,0.04883 c 3.12798,-0.08296 12.39553,-0.126837 30.51563,-0.154297 z m 316.1582,0.353516 c 1.59166,0.30028 3.12425,0.759976 4.57813,1.371094 -0.71074,-0.306012 -1.39612,-0.576092 -1.87696,-0.726563 -0.89896,-0.281308 -0.80451,-0.489802 -2.70117,-0.644531 z m -342.8789,8.630859 167.45507,0.002 c 156.31135,0 167.55207,0.02167 168.9336,0.330079 3.34639,0.747594 6.17498,2.073739 8.6875,4.070312 4.40345,3.499238 7.05093,8.450911 7.59375,14.203125 0.14247,1.52428 0.18717,49.824201 0.14258,158.267581 -0.0589,143.14541 -0.0907,156.18962 -0.38282,157.44922 -0.98431,4.24588 -2.59108,7.22566 -5.53711,10.26757 -2.56769,2.65123 -5.45793,4.37073 -9.23632,5.49219 l -1.76563,0.52344 -167.65039,0.0293 c -141.13663,0.0261 -167.86448,-0.0123 -169,-0.23829 -4.17645,-0.83108 -7.67983,-2.69816 -10.62695,-5.66211 -3.19624,-3.21433 -5.16223,-7.09689 -5.77149,-11.40234 -0.16365,-1.15457 -0.20639,-42.84884 -0.16406,-159.01172 l 0.0566,-157.449216 0.52539,-1.765625 c 2.19175,-7.384403 7.43008,-12.535374 14.82227,-14.576172 z m 11.57617,12.751953 -1.625,0.433594 c -6.24008,1.665109 -10.89046,5.411744 -13.58594,10.945313 -1.14138,2.343084 -1.68938,4.345287 -1.95508,7.146484 -0.26834,2.830904 -0.26834,286.100603 0,289.132813 0.86419,9.76142 8.36295,17.48864 17.95313,18.49804 2.24209,0.23736 307.77287,0.25695 309.98828,0.0215 6.81751,-0.72518 12.55095,-4.50693 15.89258,-10.48438 0.93033,-1.6641 1.98663,-4.98227 2.25195,-7.07617 0.16328,-1.31149 0.20671,-39.04092 0.16211,-146.65625 l -0.0605,-144.892574 -0.52148,-1.886719 c -2.01986,-7.306469 -7.3402,-12.642818 -14.59961,-14.644531 l -1.94727,-0.53711 h -155.97656 z m 156.89648,17.572266 c 0.11471,0.03745 0.38111,0.654902 0.67969,1.589844 0.3219,1.007206 8.12473,25.248644 17.33789,53.871094 l 16.75,52.04101 55.43555,0.0508 55.43359,0.0488 -44.4375,31.94727 c -24.44036,17.57113 -44.42515,32.00631 -44.40625,32.07812 0.0173,0.0718 7.75385,24.10135 17.19141,53.39844 9.43756,29.29712 17.21971,53.46634 17.29492,53.70898 0.1742,0.56187 -0.0306,0.55767 -0.77148,-0.0176 -0.59294,-0.46035 -90.44178,-63.49897 -90.87696,-63.75976 -0.14063,-0.0844 -17.87588,12.54052 -44.60742,31.75586 -24.40573,17.54344 -44.40361,31.86787 -44.44141,31.83008 -0.0508,-0.0509 32.94739,-103.91548 33.83985,-106.51368 0.17454,-0.50808 -0.50416,-0.98588 -46.09766,-32.46289 -25.45119,-17.57114 -46.259,-31.96743 -46.23633,-31.98632 0.022,-0.0204 17.92004,-0.13126 39.77149,-0.24805 21.85145,-0.11679 47.58963,-0.27112 57.19726,-0.3418 l 17.46875,-0.1289 16.65039,-53.28907 c 9.15776,-29.309023 16.71108,-53.406773 16.78516,-53.550774 0.009,-0.02126 0.0239,-0.02526 0.0391,-0.02148 z m -0.64258,37.523438 c -0.0636,0.12775 -5.13885,18.84805 -11.27929,41.60156 l -11.16407,41.37109 -6.28124,-0.12109 c -8.04828,-0.15366 -73.12466,-0.57887 -74.15821,-0.48438 -0.76558,0.0699 -0.19172,0.49267 31.32031,23.08008 l 32.10157,23.01172 -0.36914,1.21875 c -0.20398,0.67121 -5.79309,18.52578 -12.41993,39.67578 -6.62683,21.15003 -12.01839,38.48369 -11.98437,38.52149 0.0354,0.0365 14.24618,-10.83942 31.58008,-24.16797 l 31.51562,-24.23438 18.97266,13.57227 c 10.43395,7.46487 26.25387,18.79032 35.15625,25.16601 8.90246,6.37564 16.21611,11.56748 16.2539,11.54102 0.0367,-0.0276 -6.48489,-17.64365 -14.49023,-39.14649 -12.27583,-32.97381 -14.50903,-39.12774 -14.26562,-39.30273 0.1587,-0.11402 15.16348,-11.02341 33.34375,-24.24219 l 33.05468,-24.0332 -41.84375,-0.0508 -41.8457,-0.0488 -0.26953,-0.93164 c -0.14816,-0.51231 -5.34184,-19.22322 -11.54102,-41.58008 -6.1991,-22.35688 -11.32284,-40.54376 -11.38672,-40.41601 z m 0.45899,28.87109 h 0.002 c 1.8e-4,1.9e-4 0.0103,0.034 0.0176,0.0605 0.0137,0.0463 0.0295,0.0988 0.0371,0.12304 -10e-4,-0.001 -0.003,0.001 -0.004,0 -7.6e-4,-0.002 -0.0185,-0.0694 -0.0332,-0.12304 -0.007,-0.0229 -0.0185,-0.0589 -0.0195,-0.0605 z m -0.14258,0.16016 h 0.002 c 0.008,0 0.0139,-0.002 0.0215,0.006 0.004,9.8e-4 0.0199,0.0541 0.0312,0.0977 0.0507,-0.0898 0.0961,-0.11639 0.13867,-0.0801 0.13058,0.32929 3.95592,14.02175 8.625,30.88282 l 8.57422,30.96484 31.45117,0.0996 31.13672,0.0957 c -0.26248,0.24011 -11.36034,8.34347 -24.88477,18.16797 -13.65256,9.91767 -24.82617,18.11021 -24.82617,18.20508 0,2.6e-4 0.0214,0.0601 0.0215,0.0606 0.39171,-0.37716 11.27839,-8.35824 24.68554,-18.09766 13.52511,-9.82503 24.62518,-17.92873 24.88672,-18.16797 l 0.3125,0.002 -24.93555,18.11914 c -13.62927,9.90332 -24.74493,18.01324 -24.93164,18.19141 0.0312,0.15311 2.42479,6.64422 5.8379,15.84375 1.50901,4.08114 3.15186,8.5115 4.97851,13.41797 1.69746,4.55932 2.92387,7.85824 4.35938,11.7168 3.72827,10.06254 6.34456,17.19254 6.31054,17.22656 -3.8e-4,3.4e-4 -0.12123,-0.0852 -0.12304,-0.0859 0.006,0.0172 0.21484,0.57751 0.21484,0.57813 0.004,0.19718 -3.1543,-2.03961 -26.55664,-18.81641 -22.04731,-15.80538 -25.90049,-18.51885 -26.50586,-18.56836 0.1799,-0.12737 0.3091,-0.21503 0.32422,-0.21484 0.16188,0.002 12.02831,8.40818 26.37109,18.67968 14.3427,10.27143 26.11361,18.63797 26.1582,18.59375 10e-4,-10e-4 -0.11536,-0.31464 -0.11914,-0.33203 -0.39484,-0.20846 -11.79673,-8.31542 -25.91992,-18.42968 -14.34278,-10.27148 -26.21128,-18.6775 -26.37304,-18.67969 -0.0147,0 -0.14274,0.0879 -0.32227,0.21484 -0.0363,-0.004 -0.063,5.1e-4 -0.0781,0.0156 -0.0668,0.057 -0.32133,0.25796 -0.7246,0.57226 h -0.002 c -2.97683,2.19477 -11.97772,9.04789 -22.57812,17.20313 -12.87587,9.9058 -23.44356,17.97674 -23.48438,17.93554 -0.0571,-0.0569 17.49913,-56.4164 18.32813,-58.83789 0.0219,-0.0692 0.0294,-0.1385 -0.0371,-0.25 0,-0.002 0.0175,-0.0601 0.0176,-0.0605 0,-0.006 -0.0817,-0.0691 -0.20118,-0.16016 -0.90001,-0.95077 -5.1679,-4.0186 -23.69726,-17.28516 -11.21522,-8.02982 -20.61594,-14.78087 -23.25,-16.69531 -0.42346,-0.34922 -0.57723,-0.51405 -0.50391,-0.52539 0.25746,-0.0389 13.96418,0.0324 30.45899,0.1582 16.42737,0.12537 29.8267,0.20281 29.95898,0.16993 0.10326,-0.33066 3.74017,-13.76222 8.20508,-30.30274 4.51495,-16.72576 8.29078,-30.70546 8.38867,-31.0664 0.0858,-0.31574 0.1935,-0.54739 0.25586,-0.5625 z m 0.01,0.17968 c -0.0763,0.0441 -0.16522,0.25887 -0.26954,0.6543 -1.64953,6.24896 -16.46221,60.86574 -16.57031,61.09766 3.8e-4,-1.1e-4 0.0566,1.1e-4 0.0566,0 0,-3.8e-4 0.0228,-0.0778 0.0234,-0.0801 0,-1.1e-4 0.0137,1.2e-4 0.0137,0 0.0623,-0.0624 14.94371,-54.92691 16.59571,-61.18555 0.0609,-0.231 0.11341,-0.37469 0.16406,-0.48437 -0.008,10e-4 -0.01,-0.005 -0.0137,-0.002 z m -76.88868,62.11719 c 2.63415,1.91441 12.03471,8.6674 23.25,16.69727 18.52933,13.26655 22.7992,16.33243 23.69922,17.2832 -1.46608,-1.11545 -11.62455,-8.44124 -23.85937,-17.20313 -15.144,-10.84536 -21.38796,-15.37233 -23.08985,-16.77734 z m 47.13086,34.20508 c 0.0662,0.10835 0.0596,0.18002 0.0371,0.24805 -0.82892,2.4215 -18.38715,58.78082 -18.33007,58.83789 0.0408,0.041 10.60858,-8.02975 23.48437,-17.93555 10.60048,-8.15523 19.60325,-15.0103 22.58008,-17.20508 -5.97351,4.65287 -46.23111,35.49936 -46.27344,35.44531 -0.0301,-0.0386 4.12477,-13.40311 9.23242,-29.69726 5.07447,-16.18827 9.21538,-29.44951 9.26953,-29.69336 z m 223.22266,91.79297 c -0.0462,48.25152 -0.12271,56.71034 -0.33594,57.80468 0.0607,-0.32488 0.13311,-0.64533 0.17969,-0.9746 0.0923,-0.64968 0.13529,-21.61306 0.15625,-56.83008 z m -9.56641,72.27734 c -0.14117,0.10507 -0.28449,0.2073 -0.42773,0.3086 0.1442,-0.10054 0.286,-0.20466 0.42773,-0.3086 z m -3.62695,2.1836 c -0.13872,0.0661 -0.27894,0.13181 -0.41992,0.19531 0.14023,-0.0643 0.28121,-0.12842 0.41992,-0.19531 z"
         style="fill:#000000;stroke-width:0.196197"
         inkscape:connector-curvature="0"
         sodipodi:nodetypes="sccsscccccccccccccssccccccccccccscccsccccscccsccccscscsccccccccccccccccccsccccccccccccccccssscscsscsccccccscccccccsccccccssccccccssccccccccsccccccccscscccccscsccscssscscccccscccccsccccsccccccssccccccscccscccccssscccccccccc" />
      <path
         style="fill:#cccccc;stroke-width:0.0519104"
         d="m -115.85789,37.383141 c 5.9e-4,5.88e-4 0.0115,0.03944 0.0146,0.04917 -0.0246,-0.02421 -0.0533,0.03032 -0.0901,0.169824 -0.43709,1.655933 -4.37431,16.172245 -4.39079,16.188755 0,3e-5 -0.004,7e-5 -0.004,1e-4 -1.8e-4,5.9e-4 -0.006,0.0208 -0.006,0.0209 -0.006,0.009 -3.5819,-0.0114 -7.94615,-0.0447 -4.36425,-0.0333 -7.99076,-0.0522 -8.05888,-0.0419 -0.0194,0.003 0.0214,0.0465 0.13343,0.1389 0.69693,0.50653 3.18412,2.2929 6.15148,4.41746 4.90256,3.51011 6.03198,4.32162 6.27011,4.57318 0.0316,0.0241 0.0531,0.0409 0.0531,0.0424 -1e-5,1.3e-4 -0.005,0.0157 -0.005,0.0161 v 10e-5 c 0.0176,0.0295 0.016,0.0478 0.01,0.0661 -0.21934,0.640686 -4.86468,15.552596 -4.84957,15.567646 0.0108,0.0109 2.80699,-2.12464 6.21373,-4.74555 2.80469,-2.15774 5.18634,-3.97129 5.97396,-4.55199 0.10701,-0.0834 0.17412,-0.13616 0.19182,-0.15127 0.004,-0.004 0.0112,-0.005 0.0208,-0.004 2e-5,-2e-5 7e-5,2e-5 10e-5,0 0.0475,-0.0336 0.0815,-0.0568 0.0854,-0.0568 0.0428,5.8e-4 3.18273,2.22447 6.97759,4.94213 3.79484,2.71766 6.90922,4.931651 6.92091,4.919941 0.009,-0.009 -0.68341,-1.895101 -1.66985,-4.557481 -0.37981,-1.02091 -0.70437,-1.8939 -1.15349,-3.10022 -0.4833,-1.29817 -0.91786,-2.47049 -1.31712,-3.55029 -0.90916,-2.45052 -1.55567,-4.20286 -1.55529,-4.22036 0,-0.0251 2.95646,-2.192666 6.5687,-4.816716 3.578337,-2.5994 6.514757,-4.74325 6.584207,-4.80678 l -8.238247,-0.0256 -8.32138,-0.026 -2.26885,-8.193131 c -1.24784,-4.506214 -2.2807,-8.205074 -2.29531,-8.219686 z m -0.52995,31.866505 c -0.14837,0.11557 -0.44362,0.34335 -0.73556,0.56858 0.29563,-0.22807 0.58589,-0.452 0.73556,-0.56858 z M -136.20545,53.86417 c 0.0554,0.0457 0.12995,0.10462 0.22387,0.17692 -0.0939,-0.0723 -0.16846,-0.13118 -0.22387,-0.17692 z m 20.33438,-16.478716 c -0.007,0.0067 -0.0157,0.02077 -0.0246,0.04045 0.009,-0.01963 0.0176,-0.03376 0.0247,-0.04045 -2e-5,2.5e-5 -7e-5,-2.8e-5 -1e-4,0 z m -2.2797,8.364372 c -0.59728,2.21268 -1.14155,4.225994 -1.53723,5.687234 0.39531,-1.45985 0.9335,-3.450675 1.53723,-5.687234 z m -17.82474,8.296034 c 0.0851,0.0654 0.19324,0.14693 0.31269,0.23624 -0.11971,-0.0895 -0.22744,-0.17067 -0.31269,-0.23624 z m 0.84426,0.62962 c 0.0255,0.0187 0.063,0.0459 0.0894,0.0652 -0.0272,-0.0199 -0.0633,-0.046 -0.0894,-0.0652 z m 0.73445,0.53512 c 0.42804,0.31065 0.95469,0.69066 1.56046,1.12652 -0.60712,-0.43685 -1.13211,-0.81562 -1.56046,-1.12652 z m 2.0311,1.46495 c 0.66385,0.47704 1.39174,0.9993 2.26905,1.62757 -0.88043,-0.63051 -1.60381,-1.14952 -2.26905,-1.62757 z m 2.26905,1.62757 c 0.83434,0.59751 1.62415,1.16417 2.35604,1.68993 -0.73106,-0.52517 -1.52215,-1.09274 -2.35604,-1.68993 z m 3.15731,2.26642 c 0.41585,0.29917 0.84263,0.60618 1.1915,0.85784 -0.35132,-0.25343 -0.77184,-0.55593 -1.1915,-0.85784 z m 1.75664,1.26643 c 0.3215,0.23249 0.6517,0.47121 0.86767,0.62851 -0.216,-0.15734 -0.54526,-0.39536 -0.86767,-0.62851 z m 1.03658,0.75169 c 0.0718,0.0525 0.13187,0.0966 0.18484,0.13566 -0.0531,-0.0391 -0.1126,-0.0828 -0.18484,-0.13566 z m 16.3016,0.966326 c 0.002,0.007 0.005,0.0152 0.008,0.0234 -0.003,-0.008 -0.006,-0.0166 -0.008,-0.0234 z m 0.0648,0.18503 c 0.0138,0.039 0.0318,0.0891 0.0488,0.13657 -0.0165,-0.0461 -0.0354,-0.0988 -0.0488,-0.13657 z m 0.25164,0.69673 c 0.0833,0.22921 0.18061,0.49572 0.29108,0.79721 -0.10725,-0.29287 -0.21045,-0.57519 -0.29108,-0.79721 z m 2.48491,0.67991 c 0.10138,0.29504 0.24774,0.70629 0.45239,1.27008 -0.20465,-0.56379 -0.35101,-0.97504 -0.45239,-1.27008 z m -11.11623,3.98162 c 7.8e-4,1.9e-4 0.002,1.9e-4 0.003,5.9e-4 -9.8e-4,-2e-4 -0.002,-2e-4 -0.003,-5.9e-4 z m 0.0218,0.007 c 0.002,5.9e-4 0.003,0.001 0.005,0.002 -0.002,-5.9e-4 -0.003,-10e-4 -0.005,-0.002 z m 0.0436,0.0204 c 0.0114,0.006 0.022,0.0104 0.0359,0.0179 -0.0139,-0.007 -0.0245,-0.0124 -0.0359,-0.0179 z m 0.0884,0.0481 c 0.017,0.01 0.0335,0.0192 0.0535,0.0314 -0.02,-0.0122 -0.0365,-0.0216 -0.0535,-0.0314 z m 0.12907,0.0787 c 0.0227,0.0143 0.0451,0.0285 0.0711,0.0453 -0.0258,-0.0167 -0.0484,-0.031 -0.0711,-0.0453 z m 0.16404,0.10636 c 0.0338,0.0223 0.0684,0.0452 0.10707,0.0712 -0.0384,-0.0258 -0.0734,-0.049 -0.10707,-0.0712 z m 0.21626,0.14498 c 0.0344,0.0234 0.0713,0.0486 0.10909,0.0744 -0.0378,-0.0259 -0.0747,-0.0511 -0.10909,-0.0744 z m 0.63388,0.4385 c 0.12879,0.0901 0.29086,0.20456 0.44559,0.3137 -0.15369,-0.10841 -0.31748,-0.22407 -0.44559,-0.3137 z m -3.05562,0.48899 c -0.18409,0.14166 -0.37232,0.28648 -0.57811,0.44469 0.21104,-0.16223 0.38975,-0.29975 0.57811,-0.44469 z m 3.9457,0.1385 c 0.19032,0.13494 0.42548,0.30257 0.64959,0.46212 -0.22312,-0.15884 -0.45996,-0.32767 -0.64959,-0.46212 z m 1.21949,0.86787 c 0.0644,0.046 0.15075,0.10781 0.21757,0.15553 -0.0649,-0.0463 -0.15499,-0.11086 -0.21757,-0.15553 z m -8.3811,1.46262 c -0.56313,0.43193 -1.07804,0.82739 -1.65262,1.26765 0.59627,-0.45688 1.06851,-0.81964 1.65262,-1.26765 z m 17.32733,1.58915 c 0.38697,1.0402 0.71669,1.92713 0.99654,2.68008 -0.26558,-0.71485 -0.59372,-1.59728 -0.99654,-2.68008 z m -21.69644,1.75722 c -0.43014,0.32895 -0.96212,0.73662 -1.32219,1.01155 0.3647,-0.27846 0.88566,-0.67772 1.32219,-1.01155 z m -2.41616,0.0664 c -0.33203,1.068 -0.5685,1.83363 -0.6643,2.15185 0.0958,-0.31827 0.33228,-1.08386 0.6643,-2.15185 z m 0.10159,1.70159 c -0.0908,0.0691 -0.23085,0.17609 -0.3066,0.2336 0.076,-0.0577 0.21554,-0.16431 0.3066,-0.2336 z"
         id="path4744"
         inkscape:connector-curvature="0"
         sodipodi:nodetypes="ccccccscccccsccccccccccccccccccccccccccccccccccccccccccccccccccccccccccccccccccccccccccccccccccccccccccccccccccccccccccccccccccccccc" />
      <path
         inkscape:connector-curvature="0"
         id="path4746"
         d="m -115.92097,9.4052039 c -35.83528,0 -43.55246,10e-4 -45.46784,0.0518 l 45.22461,-0.0131 c 12.46796,-0.004 21.587907,-0.008 28.270117,-0.007 20.04663,0.002 18.15362,0.0485 18.8976,0.28135 0.24269,0.0759 0.68653,0.26539 0.9863,0.4209601 1.55967,0.80934 2.64428,2.18894 3.12883,3.97966 l 0.0611,0.22579 c -0.49914,-2.47995 -2.44932,-4.4279601 -4.94121,-4.8556501 -0.44827,-0.0769 -4.32155,-0.0839 -46.159537,-0.0839 z m -46.09056,0.0855 c -0.0326,0.004 -0.0625,0.009 -0.0875,0.0138 -2.38629,0.4666 -4.21763,2.2443001 -4.79156,4.5552401 0.35388,-1.31347 1.09205,-2.47003 2.08422,-3.2586 0.73259,-0.58226 1.44306,-0.9365501 2.4192,-1.2065101 z m 1.62676,2.3024101 -0.50754,0.14022 c -1.95585,0.53996 -3.34198,1.90309 -3.92188,3.85688 l -0.13869,0.46719 -0.0151,41.65811 c -0.0112,30.734763 2e-4,41.766693 0.0435,42.072173 0.1612,1.139153 0.68092,2.166233 1.52659,3.016693 0.77976,0.78421 1.70695,1.27821 2.81197,1.4981 0.30044,0.0598 7.37194,0.0697 44.71434,0.0628 l 44.357447,-0.008 0.46721,-0.13869 c 0.9997,-0.29672 1.76447,-0.75132 2.44384,-1.45279 0.77947,-0.80484 1.20493,-1.59369 1.46536,-2.71708 0.0773,-0.333273 0.0856,-3.784223 0.10118,-41.658116 0.0118,-28.69231 0,-41.47188 -0.0377,-41.87518 -0.14362,-1.52194 -0.84402,-2.83208 -2.0091,-3.75792 -0.66477,-0.52826 -1.41336,-0.87884 -2.29876,-1.07664 -0.36553,-0.0816 -3.33974,-0.0875 -44.697107,-0.0875 z m 95.618487,2.86014 0.0155,43.57372 c 0.0112,31.998133 -6e-5,43.792446 -0.0428,44.093036 -0.15596,1.10245 -0.61531,2.11463 -1.29045,2.94947 0.62597,-0.75348 1.01793,-1.57894 1.28427,-2.68505 0.0899,-0.37348 0.0943,-2.15257 0.1103,-43.734526 0.0116,-30.15006 0,-43.51116 -0.0381,-43.89036 -0.0104,-0.10287 -0.0234,-0.20494 -0.0386,-0.30629 z m -102.263027,0.15431 c -0.006,0.0506 -0.0132,0.10099 -0.0183,0.15198 -0.0381,0.3792 -0.0497,13.74029 -0.0381,43.89036 0.012,30.929343 0.0175,39.824783 0.0565,42.512706 V 58.512454 Z m 9.70725,0.35972 h 41.26877 41.268807 l 0.51535,0.14215 c 1.92072,0.52962 3.32834,1.94156 3.86276,3.87473 l 0.13808,0.49933 0.0159,38.33584 c 0.0118,28.473223 0,38.456043 -0.0432,38.803043 -0.0702,0.55401 -0.3496,1.43203 -0.59575,1.87232 -0.88414,1.581533 -2.40074,2.582203 -4.20454,2.774073 -0.58616,0.0623 -81.424637,0.0565 -82.017857,-0.006 v -1e-4 c -2.5374,-0.26707 -4.52177,-2.311473 -4.75042,-4.894183 -0.071,-0.80227 -0.0708,-75.750723 2e-4,-76.499733 0.0703,-0.74115 0.21518,-1.27084 0.51717,-1.89078 0.71318,-1.46409 1.94378,-2.45547 3.5948,-2.89603 z m 41.51221,4.64923 c -0.004,-0.001 -0.008,3.9e-4 -0.0104,0.006 -0.0196,0.0381 -2.01798,6.41392 -4.44097,14.1686 l -4.40548,14.09936 -4.62187,0.034 c -2.54202,0.0187 -9.35217,0.0593 -15.1337,0.0902 -5.78153,0.0309 -10.51668,0.0606 -10.52251,0.066 -0.006,0.005 5.49905,3.81369 12.23301,8.46272 12.06328,8.32829 12.2429,8.45471 12.19672,8.58914 -0.23613,0.68744 -8.96667,28.168423 -8.95323,28.181883 0.01,0.01 5.30108,-3.77985 11.75843,-8.42155 7.07272,-5.08406 11.7652,-8.424723 11.80241,-8.402393 0.11514,0.069 23.887587,16.747973 24.044467,16.869773 0.19602,0.1522 0.25039,0.15371 0.2043,0.005 -0.0199,-0.0642 -2.07931,-6.45895 -4.57633,-14.21048 -2.49702,-7.751523 -4.543657,-14.109243 -4.548237,-14.128253 -0.005,-0.019 5.282467,-3.83832 11.748977,-8.48735 l 11.75731,-8.45278 -14.66693,-0.0132 -14.666907,-0.0131 -4.43216,-13.76914 c -2.43765,-7.57302 -4.50171,-13.98717 -4.58688,-14.25366 -0.079,-0.24737 -0.14964,-0.41075 -0.17998,-0.42066 z m -0.16992,9.92807 c 0.0169,-0.0338 1.37256,4.77829 3.01275,10.69355 1.64019,5.91525 3.01428,10.86591 3.05348,11.00146 l 0.0713,0.24647 11.071427,0.0131 11.0714,0.0131 -8.74579,6.35902 c -4.810187,3.49747 -8.780127,6.38371 -8.822117,6.41388 -0.0644,0.0463 0.52667,1.6747 3.77465,10.39902 2.118077,5.689293 3.843077,10.350143 3.833367,10.357443 -0.01,0.007 -1.94482,-1.3669 -4.300257,-3.05379 -2.35542,-1.6869 -6.54134,-4.683043 -9.30198,-6.658123 l -5.01942,-3.59104 -8.33872,6.41185 c -4.58626,3.526513 -8.34629,6.403963 -8.35565,6.394303 -0.009,-0.01 1.41754,-4.59604 3.17089,-10.191983 1.75335,-5.59594 3.23203,-10.31977 3.28599,-10.49736 l 0.098,-0.32282 -8.49354,-6.08812 c -8.33756,-5.97625 -8.48968,-6.08837 -8.28712,-6.10687 0.27346,-0.025 17.49179,0.0876 19.62123,0.12826 l 1.66163,0.0318 2.95392,-10.94591 c 1.62467,-6.0202 2.96771,-10.97343 2.98455,-11.00723 z m 0.0841,7.68132 c -0.0165,0.004 -0.0447,0.0653 -0.0674,0.14884 -0.0259,0.0955 -1.0245,3.79433 -2.21908,8.21969 -1.18483,4.38929 -2.15548,7.97412 -2.17729,8.04114 9e-5,-3e-5 0.004,-6e-5 0.004,-1e-4 0.0165,-0.0165 3.9536,-14.53281 4.39071,-16.18875 0.0368,-0.1395 0.0656,-0.19403 0.0902,-0.16982 -0.003,-0.01 -0.0141,-0.0487 -0.0147,-0.0492 -0.002,-0.002 -0.004,-0.002 -0.006,-0.002 z m 21.130287,16.46625 c -0.0692,0.0633 -3.00579,2.20724 -6.584297,4.80678 -3.61224,2.62405 -6.56871,4.79157 -6.56871,4.81672 0,0.0178 0.65767,1.8015 1.58774,4.30806 -0.92759,-2.50807 -1.57926,-4.29111 -1.5703,-4.30562 0.0128,-0.0206 2.99218,-2.19491 6.62092,-4.83163 l 6.597677,-4.79401 z m -41.471467,0.0166 c 0.45029,0.37174 2.10196,1.56945 6.10881,4.43895 3.23713,2.31825 5.92489,4.25656 6.31279,4.55169 -0.23813,-0.25156 -1.36755,-1.06307 -6.2701,-4.57318 -2.96738,-2.12457 -5.45455,-3.91094 -6.1515,-4.41746 z m 12.46976,9.04914 c -0.0141,0.0637 -1.10959,3.57367 -2.45236,7.85733 -1.3514,4.31116 -2.4506,7.84681 -2.44263,7.85703 0.0112,0.0143 10.66237,-8.14697 12.24286,-9.37804 -0.78762,0.5807 -3.16927,2.39425 -5.97398,4.55199 -3.40672,2.62091 -6.20294,4.75639 -6.21373,4.74555 -0.0151,-0.0151 4.63025,-14.92696 4.84957,-15.56765 0.006,-0.0183 0.008,-0.0367 -0.01,-0.0662 z m 7.64593,6.12401 c -0.004,-5e-5 -0.0379,0.0231 -0.0855,0.0568 0.16017,0.0131 1.17974,0.73079 7.01309,4.91263 6.19187,4.43886 7.02724,5.030903 7.02606,4.978733 0,-0.005 -0.76862,-2.072853 -1.73039,-4.658043 0.98955,2.67071 1.68388,4.563363 1.67522,4.571963 -0.0118,0.0117 -3.12606,-2.202273 -6.9209,-4.919923 -3.79486,-2.71767 -6.93479,-4.94155 -6.97762,-4.94214 z M -67.237253,106.369 c -0.0375,0.0275 -0.0748,0.0552 -0.11295,0.0818 0.0379,-0.0268 0.0756,-0.054 0.11295,-0.0818 z m -0.13191,0.095 c -0.25327,0.17553 -0.52035,0.33251 -0.79932,0.46901 0.28011,-0.13499 0.54517,-0.29065 0.79932,-0.46901 z m -0.82783,0.4829 c -0.0367,0.0177 -0.074,0.0343 -0.1111,0.0513 0.0373,-0.0168 0.0744,-0.0338 0.1111,-0.0513 z m -1.38678,0.47339 c -0.0701,0.0148 -0.14036,0.0289 -0.21128,0.0413 -0.41372,0.0721 -5.12751,0.0798 -46.148157,0.0756 -34.95415,-0.004 -44.47015,-0.0152 -45.86945,-0.0622 0.11486,0.016 0.23071,0.0293 0.34776,0.0391 0.25696,0.0215 20.91859,0.0362 45.91476,0.0326 l 45.447567,-0.007 0.51608,-0.11904 c 0.002,-1.9e-4 0.002,-5.8e-4 0.003,-7.8e-4 z"
         style="fill:#fdc904;stroke-width:0.0519104"
         sodipodi:nodetypes="ccccccscccccccscccccccccsccsscscscccccccsscccccccccccccccsccccccccccccccsscccsscssscscccccccssccccscscsccccscccccccssccsccccccccssccscccscsccscccccccccsccsscccccccccccccccsccccc" />
    </g>
  </g>
</svg>
