<?xml version="1.0" encoding="utf-8"?>
<!-- Generator: Adobe Illustrator 23.0.1, SVG Export Plug-In . SVG Version: 6.00 Build 0)  -->
<svg version="1.1" id="Layer_1" xmlns="http://www.w3.org/2000/svg" xmlns:xlink="http://www.w3.org/1999/xlink" x="0px" y="0px"
	 viewBox="0 0 135.63 135.63" style="enable-background:new 0 0 135.63 135.63;" xml:space="preserve">
<style type="text/css">
	.st0{fill:none;stroke:#4255FF;stroke-width:12;stroke-miterlimit:10;}
	.st1{display:none;}
	.st2{display:inline;fill:#4255FF;}
	.st3{fill:#4255FF;}
</style>
<circle class="st0" cx="68.13" cy="68.13" r="59"/>
<g class="st1">
	<path class="st2" d="M75.37,104.62H64.56v-58.1c-2.6,2.09-6.02,4.19-10.25,6.28c-4.23,2.09-8.02,3.66-11.39,4.71v-8.81
		c6.05-2.4,11.34-5.3,15.87-8.71c4.53-3.41,7.73-6.72,9.62-9.93h6.97V104.62z"/>
</g>
<g>
	<path class="st3" d="M92.63,94.6v8.54H44.82c-0.07-2.14,0.28-4.19,1.04-6.17c1.22-3.26,3.17-6.46,5.85-9.62
		c2.68-3.16,6.55-6.81,11.62-10.95c7.86-6.45,13.17-11.55,15.94-15.32c2.76-3.77,4.15-7.33,4.15-10.68c0-3.52-1.26-6.49-3.78-8.91
		s-5.8-3.63-9.84-3.63c-4.28,0-7.7,1.28-10.26,3.85c-2.57,2.57-3.87,6.12-3.9,10.66l-9.13-0.94c0.62-6.81,2.98-12,7.06-15.57
		c4.08-3.57,9.56-5.35,16.43-5.35c6.94,0,12.44,1.92,16.48,5.77c4.05,3.85,6.07,8.62,6.07,14.31c0,2.9-0.59,5.74-1.78,8.54
		c-1.18,2.8-3.15,5.74-5.9,8.83c-2.75,3.09-7.31,7.34-13.69,12.73c-5.33,4.47-8.75,7.51-10.26,9.11c-1.51,1.6-2.76,3.2-3.75,4.81
		H92.63z"/>
</g>
</svg>
