<?xml version="1.0" encoding="utf-8"?>
<!-- Generator: Adobe Illustrator 19.0.0, SVG Export Plug-In . SVG Version: 6.00 Build 0)  -->
<svg version="1.1" id="Capa_1" xmlns="http://www.w3.org/2000/svg" xmlns:xlink="http://www.w3.org/1999/xlink" x="0px" y="0px"
	 viewBox="148 -91.8 512 399.7" style="enable-background:new 148 -91.8 512 399.7;" xml:space="preserve">
<style type="text/css">
	.st0{fill:#FFFFFF;}
</style>
<g>
	<g>
		<path class="st0" d="M623.5,28.9c-2.1-15.6-2.4-42.4,12.1-51.4c0.3-0.2,0.5-0.4,0.7-0.6c11.8-3.8,20-9.1,13.6-16.2L475.5-91.8
			L193.2-52.6c0,0-32.3,4.6-29.4,54.8c1.6,27.3,10.1,40.8,17.6,47.4l-23.2,7c-6.4,7.1,1.7,12.4,13.6,16.2c0.2,0.2,0.4,0.4,0.7,0.6
			c14.4,9,14.2,35.8,12.1,51.4c-51.9,14.7-33.3,19.5-33.3,19.5l11.4,2.8c-8,7.2-16,21-14.5,47c2.9,50.2,29.4,53.7,29.4,53.7
			l184.7,60l278.8-67.5c0,0,18.6-4.8-33.3-19.5c-2.1-15.5-2.4-42.3,12.1-51.4c0.3-0.2,0.5-0.4,0.7-0.6c11.8-3.8,20-9.1,13.6-16.2
			l-12.1-3.7c8.1-4.9,20.2-17.6,22.1-50.7c1.3-22.8-4.6-36.1-11.5-43.9l24-5.8C656.7,48.5,675.4,43.6,623.5,28.9z M390.2,28.3
			l46.9-9.6l158.5-32.6l23.6-4.9c-7.5,13.8-7.2,32.7-6,44.8c0.3,2.7,0.6,5.3,0.9,7.2l-25.8,6.4l-200,49.8L390.2,28.3z M188.8,77.1
			l23.6,4.9l152.2,31.3l13.3,2.7l0,0l0,0l39.9,8.2l2,61.1l-205.6-51.1l-20.3-5c0.3-1.9,0.6-4.4,0.9-7.2
			C196,109.8,196.4,90.9,188.8,77.1z M179.6-0.2c-0.3-13.4,2.1-23,6.9-27.9c3.1-3.1,6.7-3.8,9.2-3.8c1.3,0,2.3,0.2,2.3,0.2L319.7,8
			l60.7,19.8l-2,61.6L208.1,41.6l-9-2.5c-0.3-0.1-0.8-0.2-1.1-0.2C197.3,38.8,180.5,37.3,179.6-0.2z M362.8,281.2l-179.2-50.2
			c-0.3-0.1-0.8-0.2-1.1-0.2c-0.7,0-17.6-1.6-18.4-39c-0.3-13.4,2.1-23,6.9-27.9c3.1-3.1,6.7-3.8,9.2-3.8c1.3,0,2.3,0.2,2.3,0.2
			c0,0,0,0,0,0l182.3,59.5L362.8,281.2z M597.7,217.9c0.3,2.8,0.6,5.3,0.9,7.2l-225.9,56.2l2-61.1l48.3-9.9l7.1,1.7l26.7-8.7
			L580,177.9l23.6-4.9C596.1,186.9,596.4,205.8,597.7,217.9z M610.1,134.8c-0.4,0-0.8,0.1-1.2,0.2l-17,4.8l-162.2,45.5l-2-61.6
			l53.2-17.4l128.9-42c0,0,6.8-1.5,11.7,3.5c4.8,4.9,7.2,14.6,6.9,27.9C627.6,133.2,610.7,134.8,610.1,134.8z"/>
	</g>
</g>
</svg>
