<?xml version="1.0" encoding="utf-8"?>
<!-- Generator: Adobe Illustrator 19.0.0, SVG Export Plug-In . SVG Version: 6.00 Build 0)  -->
<svg version="1.1" id="Capa_1" xmlns="http://www.w3.org/2000/svg" xmlns:xlink="http://www.w3.org/1999/xlink" x="0px" y="0px"
	 viewBox="60 -22.3 335.1 261.6" style="enable-background:new 60 -22.3 335.1 261.6;" xml:space="preserve">
<g>
	<g>
		<path d="M371.2,56.7c-1.4-10.2-1.5-27.7,7.9-33.6c0.2-0.1,0.3-0.3,0.4-0.4c7.7-2.5,13.1-5.9,8.9-10.6L274.3-22.3L89.6,3.4
			c0,0-21.2,3-19.3,35.9c1,17.9,6.6,26.7,11.5,31l-15.2,4.6c-4.2,4.7,1.1,8.1,8.9,10.6c0.1,0.1,0.3,0.3,0.4,0.4
			c9.5,5.9,9.3,23.4,7.9,33.6c-34,9.6-21.8,12.8-21.8,12.8l7.5,1.8c-5.2,4.7-10.4,13.7-9.5,30.8c1.9,32.9,19.3,35.1,19.3,35.1
			l120.9,39.3L382.8,195c0,0,12.2-3.1-21.8-12.8c-1.4-10.2-1.6-27.7,7.9-33.6c0.2-0.1,0.3-0.3,0.4-0.4c7.7-2.5,13.1-5.9,8.9-10.6
			l-7.9-2.4c5.3-3.2,13.2-11.5,14.5-33.2c0.9-14.9-3-23.6-7.5-28.8l15.7-3.8C392.9,69.5,405.1,66.3,371.2,56.7z M218.5,56.3
			l30.7-6.3l103.7-21.3l15.5-3.2c-4.9,9-4.7,21.4-3.9,29.3c0.2,1.8,0.4,3.4,0.6,4.7l-16.9,4.2L217.2,96.3L218.5,56.3z M86.7,88.3
			l15.4,3.2l99.6,20.5l8.7,1.8l0,0l0,0l26.1,5.4l1.3,40l-134.5-33.5L90,122.3c0.2-1.3,0.4-2.9,0.6-4.7
			C91.4,109.7,91.7,97.3,86.7,88.3z M80.7,37.7c-0.2-8.7,1.4-15.1,4.5-18.3c2-2.1,4.4-2.5,6-2.5c0.9,0,1.5,0.1,1.5,0.1l79.6,26
			l39.7,12.9l-1.3,40.3L99.3,65l-5.9-1.6c-0.2-0.1-0.5-0.1-0.7-0.1C92.3,63.2,81.2,62.2,80.7,37.7z M200.6,221.8L83.3,188.9
			c-0.2-0.1-0.5-0.1-0.7-0.1c-0.5,0-11.5-1-12-25.5c-0.2-8.8,1.4-15.1,4.5-18.3c2-2.1,4.4-2.5,6-2.5c0.9,0,1.5,0.1,1.5,0.1
			c0,0,0,0,0,0l119.3,38.9L200.6,221.8z M354.3,180.4c0.2,1.8,0.4,3.4,0.6,4.7l-147.8,36.8l1.3-40l31.6-6.5l4.7,1.1l17.5-5.7
			l80.6-16.6l15.5-3.2C353.3,160.1,353.5,172.4,354.3,180.4z M362.4,126c-0.3,0-0.5,0-0.8,0.1l-11.1,3.1L244.3,159l-1.3-40.3
			l34.8-11.4l84.3-27.5c0,0,4.4-1,7.7,2.3c3.1,3.2,4.7,9.5,4.5,18.3C373.8,125,362.8,126,362.4,126z"/>
	</g>
</g>
</svg>
