<?xml version="1.0" encoding="utf-8"?>
<!-- Generator: Adobe Illustrator 23.0.1, SVG Export Plug-In . SVG Version: 6.00 Build 0)  -->
<svg version="1.1" id="Layer_1" xmlns="http://www.w3.org/2000/svg" xmlns:xlink="http://www.w3.org/1999/xlink" x="0px" y="0px"
	 viewBox="0 0 1000 1000" style="enable-background:new 0 0 1000 1000;" xml:space="preserve">
<style type="text/css">
	.st0{fill:#FFFFFF;}
</style>
<path d="M669.56,997.38c10.25-0.33,36.84-5.54,47.04-8.21c33.03-8.65,62.12-28.84,84.15-58.39c22.01-29.54,34.88-65.66,37.2-104.45
	c2.33-38.79-6.11-76.58-24.38-109.31L703.41,519.84C657.7,438,579.84,389.14,495.14,389.14S332.59,438,286.88,519.84L176.73,717.03
	c-18.28,32.71-26.71,70.51-24.39,109.28c2.32,38.78,15.18,74.89,37.18,104.45c22.02,29.54,72.41,49.73,105.44,58.39l134.58-26.63
	c48.02-9.5,97.23-7.22,144.43,6.69L669.56,997.38z"/>
<path d="M175.43,577.4c31.53-13.71,55.48-42.48,67.44-81.01c11.39-36.66,10.46-78.05-2.63-116.55
	c-13.1-38.48-36.91-69.89-67.07-88.45c-31.68-19.5-66.48-22.67-97.96-8.93c-63.33,27.57-92.39,116.17-64.77,197.56
	C32.5,544.8,83.95,585.69,135.96,585.69C149.24,585.69,162.56,583.02,175.43,577.4z"/>
<path d="M374.88,365.12c78.01-13.1,131.32-104.71,118.83-204.2C481.22,61.39,407.58-8.91,329.57,4.19
	c-78.01,13.1-131.3,104.72-118.81,204.24C223.25,307.93,296.87,378.22,374.88,365.12z"/>
<path d="M598.23,369.03L598.23,369.03c11.84,7.2,24.28,11.83,36.97,14.06c59.23,10.39,123.79-31.56,156.31-107.74
	c18.73-43.85,24.28-92.71,15.64-137.58c-9.04-46.97-32.35-84-65.65-104.29c-33.3-20.28-72.09-21.06-109.23-2.22
	c-35.48,18-65.32,52.07-84.03,95.92C508.75,219.69,531.18,328.19,598.23,369.03z"/>
<path d="M953.69,349.65l-0.02-0.03c-54.9-47.2-137-26.74-183.03,45.63c-45.99,72.4-38.8,169.74,16.02,216.98
	c19.99,17.24,43.61,25.48,67.79,25.48c42.14,0,85.97-25.03,115.28-71.06C1015.69,494.24,1008.51,396.9,953.69,349.65z"/>
<g>
	<path class="st0" d="M575.4,532.51c-2.13,3.04-4.86,7.75-8.06,13.83c-3.19,6.08-6.54,13.53-10.03,22.34
		c-4.26,10.64-8.66,22.8-12.92,36.17s-8.21,26.9-11.7,40.43c-3.5,13.53-6.38,26.45-8.66,38.61s-3.34,22.49-3.34,30.7
		c0,2.89,0.15,5.32,0.46,6.99s0.61,3.34,1.22,4.71c0.61,1.52,1.22,2.89,1.98,4.26c0.76,1.37,1.67,3.04,2.43,5.17
		c-6.99,0-12.62-0.46-16.87-1.52c-4.26-1.06-7.6-2.74-10.03-5.02c-2.43-2.28-3.95-5.32-4.86-8.97c-0.76-3.65-1.22-8.06-1.22-13.38
		c0-20.67,4.1-42.71,12.31-65.96c8.06-23.25,17.48-47.72,27.81-73.26c-6.38,5.32-13.22,11.86-20.37,19.61
		c-7.14,7.75-14.14,16.11-21.13,25.08c-6.99,8.97-13.83,18.24-20.67,27.97c-6.84,9.58-13.22,19-18.85,27.97
		c-5.78,8.97-10.94,17.33-15.65,25.08c-4.71,7.75-8.36,14.14-11.1,19.45c-1.67,0.3-2.74,0.61-3.19,0.76
		c-0.61,0.15-1.52,0.3-2.89,0.3c-7.3,0-12.01-2.74-14.29-8.21s-3.5-13.22-3.5-23.25c0-6.99,0.3-15.5,1.06-25.38
		c0.61-9.88,1.37-19.76,2.28-29.94c0.76-10.18,1.52-20.06,2.28-29.64c0.61-9.58,1.06-17.93,1.06-24.77c0-3.5,0-6.23-0.15-8.36
		c-0.15-2.13-0.3-4.1-0.61-6.08c-21.43,32.07-39.37,59.28-53.65,81.92c-14.29,22.49-26.6,40.89-36.63,55.17
		c-10.03,14.14-18.85,24.62-26.14,31.16c-7.45,6.54-14.74,9.88-21.89,9.88c1.67-2.28,6.08-8.51,13.53-19
		c7.45-10.49,16.72-23.71,28.12-39.97c11.4-16.26,24.47-34.96,39.21-55.78c14.74-20.97,30.25-43.16,46.66-66.72
		c0.76-1.22,1.67-2.74,2.58-4.71c0.91-1.98,1.37-3.95,1.37-5.78c0-1.82-0.91-3.5-2.58-4.71c-1.67-1.37-5.47-1.98-11.1-1.98
		c-8.51,0-15.96,1.52-22.34,4.41c-6.23,2.89-11.4,6.69-15.5,11.25c-3.95,4.56-6.99,9.58-9.12,15.2c-1.98,5.62-3.04,10.94-3.04,16.11
		c0,1.67,0,3.19,0.15,4.41c0.15,1.22,0.3,2.43,0.61,3.65c-3.8,0-6.99-0.76-9.73-2.13c-2.74-1.37-4.86-3.19-6.69-5.32
		c-1.67-2.13-3.04-4.41-3.8-6.99c-0.76-2.43-1.22-4.71-1.22-6.84c0-5.62,2.43-11.1,7.3-16.41c4.86-5.32,11.1-9.88,18.69-13.83
		c7.6-3.95,16.11-7.14,25.38-9.58s18.24-3.65,27.21-3.65c6.38,0,12.16,0.76,17.33,2.43c5.17,1.67,9.42,4.56,12.92,8.97
		c3.5,4.26,6.08,10.18,7.9,17.63c1.67,7.45,2.58,17.02,2.58,28.88c0,8.06-0.3,16.57-1.06,25.38c-0.61,8.82-1.52,17.78-2.58,26.75
		c-1.06,8.97-2.13,17.63-3.04,26.14c-0.91,8.51-1.52,16.26-1.82,23.56c3.5-8.82,8.36-18.09,14.74-27.97
		c6.23-9.88,13.07-19.61,20.52-29.49c7.45-9.88,15.2-19.45,23.41-28.88c8.21-9.42,15.96-17.93,23.1-25.84
		c7.3-7.9,13.83-14.74,19.76-20.52c5.93-5.93,10.34-10.18,13.22-13.22c3.8-3.5,6.84-6.08,9.42-7.9c2.58-1.82,6.08-2.74,10.64-2.74
		C566.28,530.69,570.54,531.3,575.4,532.51z"/>
	<path class="st0" d="M735.29,669.46c-4.86,7.9-10.03,17.63-15.65,29.18c-5.62,11.55-11.4,23.86-17.33,37.09
		s-11.7,26.75-17.33,40.73c-5.62,13.98-10.64,27.36-14.89,40.13c-4.26,12.77-7.9,24.62-10.64,35.26
		c-2.89,10.64-4.26,19.45-4.26,26.14c-8.51,0-15.5-1.52-20.52-4.71c-5.17-3.04-8.66-8.51-10.79-16.26
		c-1.37-4.41-3.04-10.64-5.02-18.54c-1.98-7.9-4.1-16.72-6.38-26.29c-2.28-9.58-4.56-19.61-6.99-30.09
		c-2.43-10.49-4.71-20.67-6.99-30.55c-2.28-9.88-4.41-19-6.38-27.36c-1.98-8.51-3.5-15.35-4.56-20.97
		c-10.79,24.77-20.06,46.36-28.12,64.75c-8.06,18.39-15.05,34.05-21.13,46.96c-6.08,12.92-11.4,23.41-15.96,31.61
		c-4.56,8.21-8.66,14.59-12.46,19.3s-7.45,7.9-11.1,9.58c-3.65,1.67-7.45,2.58-11.4,2.58c3.19-8.21,7.3-17.48,12.01-27.51
		c4.86-10.03,10.64-22.19,17.48-36.48c6.84-14.14,14.89-30.85,24.01-50.16c9.12-19.15,19.76-41.95,31.77-68.4
		c0.61-0.91,1.06-2.43,1.82-4.56c0.61-2.13,1.06-4.1,1.06-6.08c0-1.67-0.46-3.19-1.37-4.26c-0.91-1.06-2.43-1.67-4.56-1.67
		c-6.38,0-12.62,1.52-18.24,4.71c-5.78,3.19-10.79,7.14-14.89,11.86s-7.45,9.73-9.88,15.05c-2.43,5.32-3.65,10.03-3.65,14.29
		c0,3.5,0.61,6.54,1.98,9.12c-8.82,0-15.05-1.37-18.69-4.26s-5.47-6.38-5.47-10.49c0-5.93,2.74-11.7,8.21-17.63
		c5.47-5.93,12.31-11.25,20.37-15.96s16.72-8.66,26.14-11.55c9.42-3.04,17.93-4.56,25.69-4.56c8.06,0,14.74,2.28,19.91,6.69
		c5.17,4.41,9.58,10.49,12.92,17.93c3.34,7.45,6.08,16.11,8.06,25.84c1.98,9.73,3.95,19.76,5.78,30.09
		c1.67,8.66,3.19,17.17,4.86,25.69c1.67,8.51,3.19,16.57,4.86,24.32c1.67,7.6,3.04,14.74,4.41,21.13
		c1.37,6.38,2.58,11.55,3.65,15.81c1.82-8.06,4.56-17.33,8.21-27.66c3.65-10.34,7.6-20.97,12.01-31.92s9.12-21.73,13.83-32.37
		c4.86-10.64,9.27-20.37,13.53-29.18c4.1-8.82,7.75-16.26,10.79-22.19c3.04-6.08,5.17-9.88,6.23-11.4c0.76-1.06,1.98-2.28,3.65-3.8
		c1.67-1.52,3.5-2.89,5.62-4.1c2.13-1.37,4.56-2.43,7.45-3.34C729.52,669.91,732.4,669.46,735.29,669.46z"/>
</g>
</svg>
